<svg xmlns="http://www.w3.org/2000/svg" viewBox="0 0 182 182" fill="none" class="mobile-only" data-v-13822dcf=""><path d="M1.5 24.7914C1.5 11.9279 11.9279 1.5 24.7914 1.5L110.97 1.50002C118.969 1.50002 126.409 5.60535 130.674 12.3731L172.401 78.5816C177.183 86.1699 177.183 95.8301 172.401 103.418L130.674 169.627C126.409 176.395 118.969 180.5 110.97 180.5H24.7915C11.928 180.5 1.5 170.072 1.5 157.209V24.7914Z" fill="#FF6D38" stroke="#141414" stroke-width="3" data-v-13822dcf="" data-darkreader-inline-stroke="" style="--darkreader-inline-stroke: var(--darkreader-text-141414, #dbd8d4);"/><path d="M75.2124 35.8926C50.6533 35.8926 30.7437 55.9934 30.7437 80.7891V133.994C30.7671 137.742 35.2556 139.602 37.8803 136.952L43.4199 131.359C45.6164 129.142 49.1777 129.142 51.3742 131.359L55.6115 135.637C57.8081 137.855 61.3692 137.855 63.5656 135.637L71.2908 127.837C73.4875 125.619 77.0491 125.62 79.2457 127.837L86.4559 135.118C88.6524 137.335 92.2138 137.335 94.4103 135.118L98.1327 131.359C100.329 129.142 103.89 129.142 106.087 131.359L111.734 137.061C114.553 139.907 119.621 138.109 119.68 134.085C119.68 134.055 119.681 134.025 119.681 133.994V80.7891C119.681 55.9934 99.7715 35.8926 75.2124 35.8926ZM68.8595 93.617C64.1814 93.617 60.3893 89.7882 60.3893 85.0652C60.3893 80.3422 64.1814 76.5135 68.8595 76.5135C73.5376 76.5135 77.3297 80.3422 77.3297 85.0652C77.3297 89.7882 73.5376 93.617 68.8595 93.617ZM100.623 93.617C95.9445 93.617 92.1525 89.7882 92.1525 85.0652C92.1525 80.3422 95.9445 76.5135 100.623 76.5135C105.301 76.5135 109.093 80.3422 109.093 85.0652C109.093 89.7882 105.301 93.617 100.623 93.617Z" fill="#141414" data-v-13822dcf=""/></svg>