<svg xmlns="http://www.w3.org/2000/svg" fill="none" viewBox="0 0 83 83" alt="" aria-hidden="true" class="icon icon-0 songs" data-v-8461c3d5=""><rect width="81" height="81" x="1.018" y="1.018" fill="#7A78FF" rx="40.5"/><rect width="81" height="81" x="1.018" y="1.018" stroke="#141414" rx="40.5" data-darkreader-inline-stroke="" style="--darkreader-inline-stroke: var(--darkreader-text-141414, #dbd8d4);"/><path fill="#141414" d="M58.42 19.902H38.677a2.69 2.69 0 0 0-2.692 2.692V42.13c0 1.555-1.441 2.761-2.953 2.395a14.1 14.1 0 0 0-3.329-.393c-6.442 0-11.666 4.219-11.666 9.423s5.224 9.422 11.666 9.422 11.66-4.455 11.66-9.658l.007-11.88c0-1.486 1.205-3.589 2.692-3.589H58.42a2.69 2.69 0 0 0 2.692-2.692V22.594a2.69 2.69 0 0 0-2.692-2.692"/></svg>